<?xml version="1.0" encoding="UTF-8"?>
<svg width="801px" height="482px" viewBox="0 0 801 482" version="1.1" xmlns="http://www.w3.org/2000/svg" xmlns:xlink="http://www.w3.org/1999/xlink">
    <!-- Generator: Sketch 55.2 (78181) - https://sketchapp.com -->
    <title>SECTION_BANNER</title>
    <desc>Created with Sketch.</desc>
    <defs>
        <rect id="path-1" x="0" y="0" width="841" height="502"></rect>
        <polygon id="path-3" points="0 0 388 0 388 400 0 400"></polygon>
        <polygon id="path-5" points="0 0 42.6666667 0 42.6666667 52 0 52"></polygon>
        <polygon id="path-7" points="0 0 328 0 328 330.666667 0 330.666667"></polygon>
    </defs>
    <g id="Expansion" stroke="none" stroke-width="1" fill="none" fill-rule="evenodd">
        <g id="Tab---2" transform="translate(-1005.000000, -318.000000)">
            <g id="SECTION_BANNER" transform="translate(986.000000, 298.000000)">
                <mask id="mask-2" fill="white">
                    <use xlink:href="#path-1"></use>
                </mask>
                <g id="Background"></g>
                <g id="Tab-Contents" mask="url(#mask-2)">
                    <g transform="translate(-14.000000, -13.000000)" id="Image_Hero-Truck">
                        <g transform="translate(433.340176, 433.340176) rotate(-5.000000) translate(-433.340176, -433.340176) translate(33.340176, 33.340176)">
                            <g id="BG-Circles" transform="translate(0.000000, 0.000000)" stroke="#FFFFFF">
                                <circle id="Oval" fill="#FFFFFF" opacity="0.25" cx="400" cy="400" r="199.5"></circle>
                                <circle id="Oval" opacity="0.200000003" cx="400" cy="400" r="249.5"></circle>
                                <circle id="Oval" opacity="0.149999991" cx="400" cy="400" r="299.5"></circle>
                                <circle id="Oval" opacity="0.100000001" cx="400" cy="400" r="349.5"></circle>
                                <circle id="Oval" opacity="0.049999997" cx="400" cy="400" r="399.5"></circle>
                            </g>
                            <g id="Truck" transform="translate(57.763208, 105.363646)">
                                <g id="Group-3" transform="translate(296.801234, 0.000000)">
                                    <mask id="mask-4" fill="white">
                                        <use xlink:href="#path-3"></use>
                                    </mask>
                                    <g id="Clip-2"></g>
                                    <path d="M166.151035,304.472086 C166.151035,292.615448 175.707871,283.001737 187.500382,283.001737 C199.292893,283.001737 208.849729,292.615448 208.849729,304.472086 C208.849729,316.328725 199.292893,325.942435 187.500382,325.942435 C175.707871,325.942435 166.151035,316.328725 166.151035,304.472086 M338.114824,314.792807 C338.114824,304.482922 346.424531,296.1207 356.679005,296.1207 C366.93348,296.1207 375.24588,304.482922 375.24588,314.792807 C375.24588,325.102692 366.93348,333.462204 356.679005,333.462204 C346.424531,333.462204 338.114824,325.102692 338.114824,314.792807 M6.06329801e-13,100.969693 L6.06329801e-13,245.660233 C45.4811657,223.25804 60.3335879,253.128534 75.18601,284.868135 C90.0384322,316.605028 71.4715577,374.485036 71.4715577,374.485036 L218.134513,375.416881 C222.775558,387.55524 238.551879,398.756337 238.551879,398.756337 C238.551879,398.756337 286.823598,401.554579 300.74404,398.756337 C314.667176,395.955385 320.237507,375.416881 320.237507,375.416881 C320.237507,375.416881 369.433126,378.217832 378.71791,375.416881 C388,372.615929 388,361.414833 388,361.414833 L94.6794774,357.682037 L99.317829,336.208979 L388,347.412784 L388,256.864039 C388,256.864039 179.150271,232.592739 163.365869,231.658185 C147.584161,230.723632 152.230593,209.255992 120.667176,193.387545 C89.1064521,177.519099 33.4139094,202.719535 33.4139094,202.719535 L33.4139094,163.514342 C33.4139094,163.514342 143.875095,120.573644 165.224442,117.772693 C172.470183,116.821886 197.552837,121.670729 228.081918,128.350754 C234.247532,129.699762 226.479236,109.770748 232.986935,111.238945 C254.128875,116.001105 304.706302,127.25367 324.881246,131.774741 C331.706788,133.305242 324.267109,150.062191 330.446191,151.392236 C354.591478,156.593229 372.762395,159.944077 376.86203,158.844284 C390.785166,155.111488 352.727518,86.0330916 335.08993,67.3664029 C317.449648,48.6970053 154.786804,-3.16393737 130.878553,0.151695628 C103.958874,3.88720046 6.06329801e-13,100.969693 6.06329801e-13,100.969693" id="Fill-1" fill="#77F9AF" mask="url(#mask-4)"></path>
                                </g>
                                <path d="M296.58713,337.061325 C296.12458,333.824476 295.520543,330.523159 295.762702,327.189607 C295.841608,325.529547 295.792632,323.856056 295.988535,322.220171 C296.274228,320.592345 296.549038,318.972578 296.826568,317.363555 C297.033355,315.741101 297.53944,314.207291 298.048245,312.700343 C298.55433,311.193396 298.973346,309.681075 299.536569,308.254713 C300.771851,305.444967 301.936389,302.718492 303.44648,300.360025 C304.766109,297.904855 306.33606,295.782771 307.799896,293.859465 C309.220197,291.909297 310.762939,290.305647 312.077126,288.871226 C313.453894,287.474411 314.67285,286.297864 315.758483,285.406052 C317.878052,283.571389 319.246657,282.733301 319.246657,282.733301 C319.246657,282.733301 318.351486,284.052216 316.982881,286.416056 C315.5653,288.744975 313.709657,292.140309 311.726132,296.231364 C310.760218,298.297037 309.756212,300.523882 308.841994,302.925328 C307.775408,305.264993 307.187697,307.910882 306.238108,310.494988 C305.623188,313.170425 304.82869,315.910331 304.499463,318.73888 C304.311721,320.146439 304.12398,321.564743 303.933519,322.993792 C303.781149,324.417468 303.865496,325.862634 303.81652,327.294368 C303.536269,330.176641 304.09133,333.013249 304.298117,335.839112 C304.532113,338.667662 305.451772,341.348471 305.949694,344.037339 C306.678891,346.661738 307.775408,349.111536 308.559022,351.545216 C308.915458,352.783546 309.489565,353.884881 310.069113,354.951295 C310.607849,356.044571 311.124817,357.10024 311.625459,358.112931 C312.664837,360.127567 313.445731,362.118027 314.544969,363.63572 C315.56258,365.201764 316.392449,366.630813 317.097159,367.804674 C318.48481,370.168514 319.246657,371.594876 319.246657,371.594876 C319.246657,371.594876 318.000492,370.638596 315.875481,368.830795 C314.827941,367.917494 313.521916,366.816159 312.093452,365.475755 C310.547989,364.229366 309.220197,362.47529 307.729153,360.570787 C306.319734,358.615247 304.366139,356.718802 303.16895,354.177674 C301.90918,351.687584 300.249441,349.157201 299.223667,346.250752 C298.742071,344.776039 298.255032,343.277149 297.759831,341.759457 C297.256468,340.24445 296.720453,338.702582 296.58713,337.061325 M283.616673,329.760283 C283.616673,367.866456 300.320184,398.754859 320.917281,398.754859 C320.917281,398.754859 401.762927,400.291355 412.072359,398.754859 C422.384511,397.215677 428.950006,384.555703 428.950006,384.555703 L346.314018,380.265871 L346.267763,380.265871 C353.600547,367.670365 358.217888,349.73473 358.217888,329.760283 C358.217888,291.659482 341.517098,260.77108 320.917281,260.77108 C300.320184,260.77108 283.616673,291.659482 283.616673,329.760283" id="Fill-4" fill="#376F50"></path>
                                <path d="M196.452151,357.909962 C196.15389,355.721382 195.756208,353.487207 195.915804,351.234257 C195.96813,350.110464 195.934118,348.978625 196.067551,347.870925 C196.248078,346.771271 196.428604,345.674299 196.611748,344.585373 C196.742564,343.485719 197.072222,342.450435 197.404495,341.431243 C197.734153,340.412052 198.006251,339.390178 198.37777,338.42731 C199.178367,336.523031 199.934487,334.68044 200.920843,333.084601 C201.784232,331.424391 202.804601,329.992159 203.754328,328.688667 C204.680509,327.371764 205.690412,326.28552 206.54072,325.314606 C207.440737,324.370513 208.233485,323.573934 208.942511,322.970465 C210.321316,321.731343 211.216101,321.165423 211.216101,321.165423 C211.216101,321.165423 210.627427,322.058557 209.740491,323.657079 C208.81431,325.226097 207.608182,327.527325 206.315715,330.295234 C205.682563,331.6926 205.031097,333.197248 204.434574,334.822591 C203.743863,336.402337 203.361879,338.193969 202.739192,339.942687 C202.338894,341.753093 201.826093,343.603731 201.606321,345.518738 C201.48597,346.470877 201.360386,347.428381 201.240035,348.393931 C201.137998,349.359481 201.192941,350.335759 201.158929,351.303991 C200.978402,353.253866 201.342072,355.171555 201.472889,357.081198 C201.629868,358.996205 202.226392,360.809294 202.556049,362.627746 C203.024372,364.403285 203.743863,366.05813 204.248815,367.704929 C204.486901,368.544421 204.85842,369.29004 205.235171,370.011521 C205.583143,370.749093 205.925882,371.462528 206.245074,372.146459 C206.92532,373.508957 207.438121,374.855363 208.147146,375.879918 C208.81431,376.942023 209.353274,377.907573 209.811132,378.704152 C210.716382,380.302673 211.216101,381.268223 211.216101,381.268223 C211.216101,381.268223 210.402423,380.621841 209.018384,379.398811 C208.332906,378.77925 207.485215,378.033631 206.556418,377.129769 C205.546514,376.287595 204.680509,375.099432 203.707234,373.80935 C202.794135,372.489765 201.519983,371.205048 200.740316,369.485832 C199.918789,367.801484 198.838244,366.092997 198.173697,364.124348 C197.859737,363.129295 197.540545,362.115468 197.218736,361.08823 C196.886462,360.063674 196.53849,359.020344 196.452151,357.909962 M188.004022,352.972247 C188.004022,378.744383 198.498121,395.180188 211.917278,395.180188 C211.917278,395.180188 261.473183,396.220837 268.189302,395.180188 C274.908038,394.144904 282.670689,382.681681 282.670689,382.681681 L228.457716,382.676317 L228.428936,382.676317 C233.203738,374.158021 236.599735,366.481899 236.599735,352.972247 C236.599735,327.20011 225.715802,306.309365 212.304495,306.309365 C198.882722,306.309365 188.004022,327.20011 188.004022,352.972247" id="Fill-6" fill="#376F50"></path>
                                <path d="M60.1170475,373.610465 C59.9429788,372.40135 59.7056125,371.166993 59.800559,369.925063 C59.8322079,369.304099 59.8111086,368.678085 59.8928681,368.067217 C59.9983643,367.456349 60.1064979,366.853054 60.211994,366.252283 C60.2884788,365.646464 60.4862841,365.07346 60.681452,364.510552 C60.8766199,363.947645 61.0348641,363.382214 61.256406,362.852122 C61.7285014,361.799511 62.1794974,360.782239 62.7623637,359.898752 C63.2740201,358.984975 63.8753482,358.192361 64.4371153,357.47295 C64.9856953,356.745967 65.5843861,356.145196 66.0854928,355.607531 C66.615611,355.087536 67.0903438,354.648317 67.5070536,354.312592 C68.3246489,353.631045 68.8494923,353.318039 68.8494923,353.318039 C68.8494923,353.318039 68.5039923,353.810267 67.9765115,354.693754 C67.4305689,355.564619 66.7158324,356.831791 65.9536226,358.358961 C65.5791113,359.131381 65.1940503,359.964383 64.8406381,360.857966 C64.4318405,361.73388 64.2023863,362.723385 63.8384246,363.687648 C63.6010582,364.68725 63.2977568,365.707046 63.1658866,366.76723 C63.0946767,367.292273 63.0234667,367.822365 62.9496194,368.354981 C62.8889591,368.887598 62.9232454,369.427787 62.9047836,369.962927 C62.79665,371.035732 63.0102797,372.098441 63.0867644,373.151052 C63.181711,374.208712 63.5324857,375.213362 63.7276536,376.212964 C64.004581,377.197421 64.4318405,378.111198 64.7298672,379.022452 C64.8696496,379.481865 65.0911915,379.895841 65.3127334,380.292148 C65.518451,380.701076 65.7215311,381.094859 65.9114242,381.470972 C66.314947,382.225722 66.615611,382.970375 67.0375957,383.535806 C67.4305689,384.123956 67.7523322,384.656572 68.01871,385.093267 C68.5567404,385.976754 68.8494923,386.50937 68.8494923,386.50937 C68.8494923,386.50937 68.3694847,386.150927 67.5492521,385.476953 C67.1457293,385.136179 66.6472599,384.724727 66.093405,384.224926 C65.4973517,383.760464 64.9856953,383.101636 64.4081039,382.392322 C63.867436,381.66029 63.1184133,380.953501 62.6542302,380.00186 C62.1715852,379.072937 61.5306961,378.126344 61.1350854,377.040917 C60.9504672,376.493156 60.7605741,375.932773 60.570681,375.364817 C60.3755131,374.799385 60.172433,374.223857 60.1170475,373.610465 M55.1191668,370.884278 C55.1191668,385.115985 61.3276159,394.190655 69.2662021,394.190655 C69.2662021,394.190655 98.5783106,394.768708 102.550241,394.190655 C106.527446,393.620175 111.119167,387.289362 111.119167,387.289362 L79.0509711,387.286838 L79.0298719,387.286838 C81.857169,382.584165 83.8642335,378.345953 83.8642335,370.884278 C83.8642335,356.650046 77.4263302,345.114234 69.4956563,345.114234 C61.5570701,345.114234 55.1191668,356.650046 55.1191668,370.884278" id="Fill-8" fill="#376F50"></path>
                                <g id="Group-12" transform="translate(17.372228, 346.587346)">
                                    <mask id="mask-6" fill="white">
                                        <use xlink:href="#path-5"></use>
                                    </mask>
                                    <g id="Clip-11"></g>
                                    <path d="M4.7262195,29.9608793 C4.56085516,28.6926489 4.33681315,27.3960465 4.43016399,26.085258 C4.45950282,25.432701 4.43816549,24.7744695 4.51818049,24.1332613 C4.61686566,23.4948903 4.718218,22.8593565 4.81957034,22.2238227 C4.88891667,21.5882889 5.08095268,20.9896387 5.26232002,20.396663 C5.44635452,19.8036873 5.5930487,19.2078743 5.80642204,18.6517823 C6.25717322,17.5424353 6.6759184,16.4756464 7.22802192,15.5478806 C7.71344627,14.583231 8.28421996,13.7490929 8.81231898,12.9972337 C9.33241649,12.2311885 9.89785585,11.5984919 10.3726115,11.0367254 C10.8740389,10.4863078 11.3247901,10.0266806 11.7195307,9.67486728 C12.4903419,8.95705455 12.986435,8.62510162 12.986435,8.62510162 C12.986435,8.62510162 12.6610406,9.14431004 12.1622804,10.0692387 C11.6501844,10.988493 10.9700569,12.3191419 10.2499219,13.9278368 C9.89518868,14.7364401 9.52978684,15.6159735 9.19372382,16.5550881 C8.80698464,17.4771796 8.59627847,18.5127592 8.24421246,19.5284784 C8.02283762,20.5782441 7.73745077,21.6535446 7.6147611,22.7657288 C7.54541477,23.3218208 7.4787356,23.8750757 7.40938926,24.4368422 C7.35071159,24.9957715 7.38271759,25.5660496 7.36404743,26.1278161 C7.26269509,27.2570234 7.4627326,28.3720448 7.54008043,29.4813918 C7.62542977,30.5935759 7.95615845,31.6461788 8.14019295,32.7016188 C8.40690963,33.7343613 8.80698464,34.6933364 9.08970432,35.6494743 C9.22572982,36.1374735 9.43376883,36.5687286 9.64447501,36.9886348 C9.84184535,37.4198899 10.0258799,37.8341217 10.2072472,38.2284932 C10.588652,39.0229104 10.8740389,39.8031417 11.2714467,40.3989546 C11.6501844,41.014628 11.9489071,41.5792317 12.1996208,42.0388588 C12.7143839,42.9637874 12.986435,43.5227167 12.986435,43.5227167 C12.986435,43.5227167 12.5330166,43.1482057 11.7622054,42.4360674 C11.3754662,42.0814169 10.9060449,41.6473246 10.380613,41.1252789 C9.81517368,40.6372798 9.33241649,39.9450019 8.78831448,39.1931427 C8.27621846,38.4299347 7.56141777,37.6809127 7.12666958,36.6822167 C6.67058407,35.7033812 6.06780438,34.7131968 5.6890667,33.5698034 C5.51570086,32.9910137 5.33966785,32.4037124 5.15830051,31.8078994 C4.97693317,31.2092493 4.77956283,30.6105991 4.7262195,29.9608793 M0,27.0953028 C0,42.0587192 5.87576837,51.6002379 13.3811756,51.6002379 C13.3811756,51.6002379 38.9112959,52.3747947 42.6666667,51.767633 C35.7853764,49.7787526 34.5424767,44.3426688 34.5424767,44.3426688 L22.6389115,44.3426688 L22.6202413,44.3426688 C25.2954096,39.3974214 27.1917651,34.9401732 27.1917651,27.0953028 C27.1917651,12.1290492 21.1026234,0 13.5998833,0 C6.09447605,0 0,12.1290492 0,27.0953028" id="Fill-10" fill="#366D4F" mask="url(#mask-6)"></path>
                                </g>
                                <g id="Group-15" transform="translate(0.000000, 44.889631)">
                                    <mask id="mask-8" fill="white">
                                        <use xlink:href="#path-7"></use>
                                    </mask>
                                    <g id="Clip-14"></g>
                                    <path d="M328,17.0844059 C328,17.0844059 262.724829,-5.90483076 251.69357,1.45225867 C240.662311,8.80667959 5.30834299,241.570366 1.63481384,247.956116 C-2.0387153,254.339199 1.63481384,284.741564 1.63481384,284.741564 L246.181942,177.093763 L248.937756,203.762878 L4.3959632,292.963251 L-0.000533555431,330.666667 L10.8306417,330.666667 C10.8306417,330.666667 17.2653202,302.156277 23.7026665,299.399704 C30.137345,296.64313 77.0181929,288.365404 82.5351561,290.206678 C88.054787,292.042614 90.8106008,323.309577 90.8106008,323.309577 L168.955129,323.309577 C168.955129,323.309577 179.068672,260.780988 183.662585,256.183141 C188.259165,251.579957 230.5461,241.463625 235.145348,244.222867 C239.744596,246.982109 245.258892,323.309577 245.258892,323.309577 L284.779342,323.309577 C284.779342,323.309577 258.109574,273.651225 284.779342,218.477057 C284.779342,218.477057 275.599521,215.717815 271.920656,208.360726 C268.244459,201.003636 268.239124,37.3170689 275.596853,32.7192216 C282.951915,28.1213743 308.17308,36.3964321 308.17308,36.3964321 L328,17.0844059 Z" id="Fill-13" fill="#54B27E" mask="url(#mask-8)"></path>
                                </g>
                            </g>
                        </g>
                    </g>
                </g>
            </g>
        </g>
    </g>
</svg>